<?xml version="1.0" standalone="no"?>
<!DOCTYPE svg PUBLIC "-//W3C//DTD SVG 20010904//EN"
 "http://www.w3.org/TR/2001/REC-SVG-20010904/DTD/svg10.dtd">
<svg version="1.0" xmlns="http://www.w3.org/2000/svg"
 width="512.000000pt" height="512.000000pt" viewBox="0 0 512.000000 512.000000"
 preserveAspectRatio="xMidYMid meet">
<metadata>
Created by potrace 1.14, written by Peter Selinger 2001-2017
</metadata>
<g transform="translate(0.000000,512.000000) scale(0.100000,-0.100000)"
fill="#000000" stroke="none">
<path d="M1841 5102 c-50 -27 -71 -73 -71 -157 0 -113 -3 -115 -165 -115 -73
0 -144 -4 -157 -9 -34 -13 -79 -61 -85 -93 l-5 -28 -132 0 c-652 -2 -740 -4
-775 -25 -19 -11 -48 -37 -65 -58 l-31 -39 -2 -2213 c-2 -1689 0 -2221 9
-2242 19 -45 76 -99 118 -112 28 -8 481 -11 1699 -11 1639 0 1663 1 1701 20
22 11 49 30 60 43 52 54 50 9 50 1186 l0 1096 136 215 c75 118 148 235 163
258 14 24 49 79 76 121 28 43 55 85 60 94 6 9 74 119 153 243 194 306 195 307
189 372 -9 83 -34 120 -123 180 -43 30 -95 61 -114 70 -46 21 -123 24 -165 6
-61 -25 -65 -30 -327 -444 l-47 -75 -3 597 -3 596 -31 39 c-17 21 -46 47 -65
58 -35 21 -118 23 -796 25 -98 0 -113 2 -113 16 0 29 -39 81 -72 97 -23 11
-68 15 -167 16 -167 2 -168 3 -170 117 -1 58 -6 85 -21 109 -38 62 -55 65
-382 65 -265 0 -297 -2 -327 -18z"/>
</g>
</svg>
